<?xml version="1.0" encoding="UTF-8" standalone="no"?>
<svg
   xmlns:dc="http://purl.org/dc/elements/1.1/"
   xmlns:cc="http://creativecommons.org/ns#"
   xmlns:rdf="http://www.w3.org/1999/02/22-rdf-syntax-ns#"
   xmlns:svg="http://www.w3.org/2000/svg"
   xmlns="http://www.w3.org/2000/svg"
   viewBox="0 0 206.66667 53.333332"
   height="53.333332"
   width="206.66667"
   xml:space="preserve"
   id="svg2"
   version="1.1"><metadata
     id="metadata8"><rdf:RDF><cc:Work
         rdf:about=""><dc:format>image/svg+xml</dc:format><dc:type
           rdf:resource="http://purl.org/dc/dcmitype/StillImage" /></cc:Work></rdf:RDF></metadata><defs
     id="defs6" /><g
     transform="matrix(13.333333,0,0,-13.333333,33.333332,40)"
     id="g10"><path
       id="path12"
       style="fill:none;stroke:#000000;stroke-width:0.02;stroke-linecap:butt;stroke-linejoin:miter;stroke-miterlimit:10;stroke-dasharray:none;stroke-opacity:1"
       d="M 4.5,0 V 2" /><path
       id="path14"
       style="fill:none;stroke:#000000;stroke-width:0.02;stroke-linecap:butt;stroke-linejoin:miter;stroke-miterlimit:10;stroke-dasharray:none;stroke-opacity:1"
       d="M 6,0 V 1" /><path
       id="path16"
       style="fill:none;stroke:#000000;stroke-width:0.02;stroke-linecap:butt;stroke-linejoin:miter;stroke-miterlimit:10;stroke-dasharray:none;stroke-opacity:1"
       d="M 0,0 H 9" /><path
       id="path18"
       style="fill:none;stroke:#000000;stroke-width:0.02;stroke-linecap:butt;stroke-linejoin:miter;stroke-miterlimit:10;stroke-dasharray:none;stroke-opacity:1"
       d="M 0,1 H 10.5" /><path
       id="path20"
       style="fill:none;stroke:#000000;stroke-width:0.02;stroke-linecap:butt;stroke-linejoin:miter;stroke-miterlimit:10;stroke-dasharray:none;stroke-opacity:1"
       d="M 0,2 H 10.5" /><path
       id="path22"
       style="fill:none;stroke:#000000;stroke-width:0.02;stroke-linecap:butt;stroke-linejoin:miter;stroke-miterlimit:10;stroke-dasharray:none;stroke-opacity:1"
       d="m 9,0.03 h 1.5" /><path
       id="path24"
       style="fill:none;stroke:#000000;stroke-width:0.02;stroke-linecap:butt;stroke-linejoin:miter;stroke-miterlimit:10;stroke-dasharray:none;stroke-opacity:1"
       d="m 9,-0.03 h 1.5" /><path
       id="path26"
       style="fill:none;stroke:#000000;stroke-width:0.02;stroke-linecap:butt;stroke-linejoin:miter;stroke-miterlimit:10;stroke-dasharray:none;stroke-opacity:1"
       d="M 10.5,2.03 H 12" /><path
       id="path28"
       style="fill:none;stroke:#000000;stroke-width:0.02;stroke-linecap:butt;stroke-linejoin:miter;stroke-miterlimit:10;stroke-dasharray:none;stroke-opacity:1"
       d="M 10.5,1.97 H 12" /><path
       id="path30"
       style="fill:none;stroke:#000000;stroke-width:0.02;stroke-linecap:butt;stroke-linejoin:miter;stroke-miterlimit:10;stroke-dasharray:none;stroke-opacity:1"
       d="M 10.5,1.03 H 12" /><path
       id="path32"
       style="fill:none;stroke:#000000;stroke-width:0.02;stroke-linecap:butt;stroke-linejoin:miter;stroke-miterlimit:10;stroke-dasharray:none;stroke-opacity:1"
       d="M 10.5,0.97 H 12" /><path
       id="path34"
       style="fill:#000000;fill-opacity:1;fill-rule:nonzero;stroke:none"
       d="m -0.05,1.75 h 0.1 v 0.5 h -0.1 z" /><text
       id="text38"
       style="font-variant:normal;font-weight:normal;font-size:0.5px;font-family:'Times New Roman';-inkscape-font-specification:Times-Roman;writing-mode:lr-tb;fill:#000000;fill-opacity:1;fill-rule:nonzero;stroke:none"
       transform="matrix(1,0,0,-1,-0.4,1.875)"><tspan
         id="tspan36"
         y="0"
         x="0">0</tspan></text>
<path
       id="path40"
       style="fill:#000000;fill-opacity:1;fill-rule:nonzero;stroke:none"
       d="m -0.05,0.75 h 0.1 v 0.5 h -0.1 z" /><text
       id="text44"
       style="font-variant:normal;font-weight:normal;font-size:0.5px;font-family:'Times New Roman';-inkscape-font-specification:Times-Roman;writing-mode:lr-tb;fill:#000000;fill-opacity:1;fill-rule:nonzero;stroke:none"
       transform="matrix(1,0,0,-1,-0.4,0.875)"><tspan
         id="tspan42"
         y="0"
         x="0">0</tspan></text>
<path
       id="path46"
       style="fill:#000000;fill-opacity:1;fill-rule:nonzero;stroke:none"
       d="m -0.05,-0.25 h 0.1 v 0.5 h -0.1 z" /><text
       id="text50"
       style="font-variant:normal;font-weight:normal;font-size:0.5px;font-family:'Times New Roman';-inkscape-font-specification:Times-Roman;writing-mode:lr-tb;fill:#000000;fill-opacity:1;fill-rule:nonzero;stroke:none"
       transform="matrix(1,0,0,-1,-0.4,-0.125)"><tspan
         id="tspan48"
         y="0"
         x="0">1</tspan></text>
<path
       id="path52"
       style="fill:#ffffff;fill-opacity:1;fill-rule:nonzero;stroke:#000000;stroke-width:0.02;stroke-linecap:butt;stroke-linejoin:miter;stroke-miterlimit:10;stroke-dasharray:none;stroke-opacity:1"
       d="m 1.1703125,1.6 h 0.659375 v 0.8 h -0.659375 z" /><text
       id="text56"
       style="font-variant:normal;font-weight:normal;font-size:0.5px;font-family:'Times New Roman';-inkscape-font-specification:Times-Roman;writing-mode:lr-tb;fill:#000000;fill-opacity:1;fill-rule:nonzero;stroke:none"
       transform="matrix(1,0,0,-1,1.3203125,1.875)"><tspan
         id="tspan54"
         y="0"
         x="0">H</tspan></text>
<path
       id="path58"
       style="fill:#ffffff;fill-opacity:1;fill-rule:nonzero;stroke:#000000;stroke-width:0.02;stroke-linecap:butt;stroke-linejoin:miter;stroke-miterlimit:10;stroke-dasharray:none;stroke-opacity:1"
       d="m 1.1703125,0.6 h 0.659375 v 0.8 h -0.659375 z" /><text
       id="text62"
       style="font-variant:normal;font-weight:normal;font-size:0.5px;font-family:'Times New Roman';-inkscape-font-specification:Times-Roman;writing-mode:lr-tb;fill:#000000;fill-opacity:1;fill-rule:nonzero;stroke:none"
       transform="matrix(1,0,0,-1,1.3203125,0.875)"><tspan
         id="tspan60"
         y="0"
         x="0">H</tspan></text>
<path
       id="path64"
       style="fill:#ffffff;fill-opacity:1;fill-rule:nonzero;stroke:#000000;stroke-width:0.02;stroke-linecap:butt;stroke-linejoin:miter;stroke-miterlimit:10;stroke-dasharray:none;stroke-opacity:1"
       d="m 1.1703125,-0.4 h 0.659375 v 0.8 h -0.659375 z" /><text
       id="text68"
       style="font-variant:normal;font-weight:normal;font-size:0.5px;font-family:'Times New Roman';-inkscape-font-specification:Times-Roman;writing-mode:lr-tb;fill:#000000;fill-opacity:1;fill-rule:nonzero;stroke:none"
       transform="matrix(1,0,0,-1,1.3203125,-0.125)"><tspan
         id="tspan66"
         y="0"
         x="0">H</tspan></text>
<text
       id="text72"
       style="font-variant:normal;font-weight:normal;font-size:0.30000001px;font-family:'Times New Roman';-inkscape-font-specification:Times-Roman;writing-mode:lr-tb;fill:#ff3333;fill-opacity:1;fill-rule:nonzero;stroke:none"
       transform="matrix(0,1,1,0,3.045,0.8308599)"><tspan
         id="tspan70"
         y="0"
         x="0 0.15000001 0.2832 0.3831 0.53310001 0.63300002 0.76620001 0.84119999 0.99119997 1.0911 1.2243 1.3575 1.4409">before oracle</tspan></text>
<path
       id="path74"
       style="fill:#000000;fill-opacity:1;fill-rule:nonzero;stroke:none"
       d="M 4.65,2 C 4.65,2.082843 4.582843,2.15 4.5,2.15 4.417157,2.15 4.35,2.082843 4.35,2 4.35,1.917157 4.417157,1.85 4.5,1.85 4.582843,1.85 4.65,1.917157 4.65,2" /><path
       id="path76"
       style="fill:#ffffff;fill-opacity:1;fill-rule:nonzero;stroke:#000000;stroke-width:0.02;stroke-linecap:butt;stroke-linejoin:miter;stroke-miterlimit:10;stroke-dasharray:none;stroke-opacity:1"
       d="M 4.75,0 C 4.75,0.13807119 4.6380712,0.25 4.5,0.25 4.3619288,0.25 4.25,0.13807119 4.25,0 c 0,-0.13807119 0.1119288,-0.25 0.25,-0.25 0.1380712,0 0.25,0.11192881 0.25,0.25" /><path
       id="path78"
       style="fill:none;stroke:#000000;stroke-width:0.02;stroke-linecap:butt;stroke-linejoin:miter;stroke-miterlimit:10;stroke-dasharray:none;stroke-opacity:1"
       d="m 4.25,0 h 0.5" /><path
       id="path80"
       style="fill:none;stroke:#000000;stroke-width:0.02;stroke-linecap:butt;stroke-linejoin:miter;stroke-miterlimit:10;stroke-dasharray:none;stroke-opacity:1"
       d="m 4.5,-0.25 v 0.5" /><path
       id="path82"
       style="fill:#000000;fill-opacity:1;fill-rule:nonzero;stroke:none"
       d="M 6.15,1 C 6.15,1.0828427 6.0828427,1.15 6,1.15 5.9171573,1.15 5.85,1.0828427 5.85,1 5.85,0.91715729 5.9171573,0.85 6,0.85 6.082843,0.85 6.15,0.9171573 6.15,1" /><path
       id="path84"
       style="fill:#ffffff;fill-opacity:1;fill-rule:nonzero;stroke:#000000;stroke-width:0.02;stroke-linecap:butt;stroke-linejoin:miter;stroke-miterlimit:10;stroke-dasharray:none;stroke-opacity:1"
       d="M 6.25,0 C 6.25,0.13807119 6.1380712,0.25 6,0.25 5.8619288,0.25 5.75,0.13807119 5.75,0 c 0,-0.13807119 0.1119288,-0.25 0.25,-0.25 0.1380712,0 0.25,0.11192881 0.25,0.25" /><path
       id="path86"
       style="fill:none;stroke:#000000;stroke-width:0.02;stroke-linecap:butt;stroke-linejoin:miter;stroke-miterlimit:10;stroke-dasharray:none;stroke-opacity:1"
       d="m 5.75,0 h 0.5" /><path
       id="path88"
       style="fill:none;stroke:#000000;stroke-width:0.02;stroke-linecap:butt;stroke-linejoin:miter;stroke-miterlimit:10;stroke-dasharray:none;stroke-opacity:1"
       d="m 6,-0.25 v 0.5" /><text
       id="text92"
       style="font-variant:normal;font-weight:normal;font-size:0.30000001px;font-family:'Times New Roman';-inkscape-font-specification:Times-Roman;writing-mode:lr-tb;fill:#ff3333;fill-opacity:1;fill-rule:nonzero;stroke:none"
       transform="matrix(0,1,1,0,7.545,1.0476567)"><tspan
         id="tspan90"
         y="0"
         x="0 0.1332 0.2331 0.31650001 0.4497 0.54960001 0.62459999 0.77460003 0.87449998 1.0077 1.1409 1.2243">after oracle</tspan></text>
<path
       id="path94"
       style="fill:#ffffff;fill-opacity:1;fill-rule:nonzero;stroke:#000000;stroke-width:0.02;stroke-linecap:butt;stroke-linejoin:miter;stroke-miterlimit:10;stroke-dasharray:none;stroke-opacity:1"
       d="m 8.6703125,1.6 h 0.659375 v 0.8 h -0.659375 z" /><text
       id="text98"
       style="font-variant:normal;font-weight:normal;font-size:0.5px;font-family:'Times New Roman';-inkscape-font-specification:Times-Roman;writing-mode:lr-tb;fill:#000000;fill-opacity:1;fill-rule:nonzero;stroke:none"
       transform="matrix(1,0,0,-1,8.8203125,1.875)"><tspan
         id="tspan96"
         y="0"
         x="0">H</tspan></text>
<path
       id="path100"
       style="fill:#ffffff;fill-opacity:1;fill-rule:nonzero;stroke:#000000;stroke-width:0.02;stroke-linecap:butt;stroke-linejoin:miter;stroke-miterlimit:10;stroke-dasharray:none;stroke-opacity:1"
       d="m 8.6703125,0.6 h 0.659375 v 0.8 h -0.659375 z" /><text
       id="text104"
       style="font-variant:normal;font-weight:normal;font-size:0.5px;font-family:'Times New Roman';-inkscape-font-specification:Times-Roman;writing-mode:lr-tb;fill:#000000;fill-opacity:1;fill-rule:nonzero;stroke:none"
       transform="matrix(1,0,0,-1,8.8203125,0.875)"><tspan
         id="tspan102"
         y="0"
         x="0">H</tspan></text>
<path
       id="path106"
       style="fill:#ffffff;fill-opacity:1;fill-rule:nonzero;stroke:#000000;stroke-width:0.02;stroke-linecap:butt;stroke-linejoin:miter;stroke-miterlimit:10;stroke-dasharray:none;stroke-opacity:1"
       d="M 8.3382813,-0.4 H 9.6617188 V 0.4 H 8.3382813 Z" /><text
       id="text110"
       style="font-variant:normal;font-weight:normal;font-size:0.5px;font-family:'Times New Roman';-inkscape-font-specification:Times-Roman;writing-mode:lr-tb;fill:#000000;fill-opacity:1;fill-rule:nonzero;stroke:none"
       transform="matrix(1,0,0,-1,8.4882813,-0.125)"><tspan
         id="tspan108"
         y="0"
         x="0 0.389 0.611 0.833">meas</tspan></text>
<path
       id="path112"
       style="fill:#ffffff;fill-opacity:1;fill-rule:nonzero;stroke:#000000;stroke-width:0.02;stroke-linecap:butt;stroke-linejoin:miter;stroke-miterlimit:10;stroke-dasharray:none;stroke-opacity:1"
       d="M 9.8382813,0.6 H 11.161719 V 1.4 H 9.8382813 Z" /><text
       id="text116"
       style="font-variant:normal;font-weight:normal;font-size:0.5px;font-family:'Times New Roman';-inkscape-font-specification:Times-Roman;writing-mode:lr-tb;fill:#000000;fill-opacity:1;fill-rule:nonzero;stroke:none"
       transform="matrix(1,0,0,-1,9.9882813,0.875)"><tspan
         id="tspan114"
         y="0"
         x="0 0.389 0.611 0.833">meas</tspan></text>
<path
       id="path118"
       style="fill:#ffffff;fill-opacity:1;fill-rule:nonzero;stroke:#000000;stroke-width:0.02;stroke-linecap:butt;stroke-linejoin:miter;stroke-miterlimit:10;stroke-dasharray:none;stroke-opacity:1"
       d="M 9.8382813,1.6 H 11.161719 V 2.4 H 9.8382813 Z" /><text
       id="text122"
       style="font-variant:normal;font-weight:normal;font-size:0.5px;font-family:'Times New Roman';-inkscape-font-specification:Times-Roman;writing-mode:lr-tb;fill:#000000;fill-opacity:1;fill-rule:nonzero;stroke:none"
       transform="matrix(1,0,0,-1,9.9882813,1.875)"><tspan
         id="tspan120"
         y="0"
         x="0 0.389 0.611 0.833">meas</tspan></text>
<path
       id="path124"
       style="fill:#000000;fill-opacity:1;fill-rule:nonzero;stroke:none"
       d="m 10.45,-0.25 h 0.1 v 0.5 h -0.1 z" /></g></svg>