<svg xmlns="http://www.w3.org/2000/svg" height="53.33" width="166.67"><path d="M33.33 40h80m-80-13.33h100m-100-13.34h100m-20 26.27h20m-20 .8h20m0-27.47h20m-20 .8h20m-20 12.54h20m-20 .8h20" fill="none" stroke="#000" stroke-width=".27" stroke-miterlimit="10"/><path d="M32.67 16.67H34V10h-1.33z"/><text style="-inkscape-font-specification:Times-Roman" transform="translate(28 15) scale(13.33333)" font-weight="400" font-size=".5" font-family="Times New Roman"><tspan y="0" x="0">0</tspan></text><path d="M32.67 30H34v-6.67h-1.33z"/><text style="-inkscape-font-specification:Times-Roman" transform="translate(28 28.33) scale(13.33333)" font-weight="400" font-size=".5" font-family="Times New Roman"><tspan y="0" x="0">0</tspan></text><path d="M32.67 43.33H34v-6.66h-1.33z"/><text style="-inkscape-font-specification:Times-Roman" transform="translate(28 41.67) scale(13.33333)" font-weight="400" font-size=".5" font-family="Times New Roman"><tspan y="0" x="0">1</tspan></text><path d="M48.94 18.67h8.79V8h-8.8z" fill="#fff" stroke="#000" stroke-width=".27" stroke-miterlimit="10"/><text style="-inkscape-font-specification:Times-Roman" transform="translate(50.94 15) scale(13.33333)" font-weight="400" font-size=".5" font-family="Times New Roman"><tspan y="0" x="0">H</tspan></text><path d="M48.94 32h8.79V21.33h-8.8z" fill="#fff" stroke="#000" stroke-width=".27" stroke-miterlimit="10"/><text style="-inkscape-font-specification:Times-Roman" transform="translate(50.94 28.33) scale(13.33333)" font-weight="400" font-size=".5" font-family="Times New Roman"><tspan y="0" x="0">H</tspan></text><path d="M48.94 45.33h8.79V34.67h-8.8z" fill="#fff" stroke="#000" stroke-width=".27" stroke-miterlimit="10"/><text style="-inkscape-font-specification:Times-Roman" transform="translate(50.94 41.67) scale(13.33333)" font-weight="400" font-size=".5" font-family="Times New Roman"><tspan y="0" x="0">H</tspan></text><text style="-inkscape-font-specification:Times-Roman" transform="rotate(-90 51.43 -22.5) scale(13.33333)" font-weight="400" font-size=".3" font-family="Times New Roman" fill="#f33"><tspan y="0" x="0 .15 .28 .38 .53 .63 .77 .84 .99 1.09 1.22 1.36 1.44">before oracle</tspan></text><text style="-inkscape-font-specification:Times-Roman" transform="rotate(-90 59.98 -33.95) scale(13.33333)" font-weight="400" font-size=".3" font-family="Times New Roman" fill="#f33"><tspan y="0" x="0 .13 .23 .32 .45 .55 .62 .77 .87 1.01 1.14 1.22">after oracle</tspan></text><path d="M108.94 18.67h8.79V8h-8.8z" fill="#fff" stroke="#000" stroke-width=".27" stroke-miterlimit="10"/><text style="-inkscape-font-specification:Times-Roman" transform="translate(110.94 15) scale(13.33333)" font-weight="400" font-size=".5" font-family="Times New Roman"><tspan y="0" x="0">H</tspan></text><path d="M108.94 32h8.79V21.33h-8.8z" fill="#fff" stroke="#000" stroke-width=".27" stroke-miterlimit="10"/><text style="-inkscape-font-specification:Times-Roman" transform="translate(110.94 28.33) scale(13.33333)" font-weight="400" font-size=".5" font-family="Times New Roman"><tspan y="0" x="0">H</tspan></text><path d="M104.51 45.33h17.65V34.67H104.5z" fill="#fff" stroke="#000" stroke-width=".27" stroke-miterlimit="10"/><text style="-inkscape-font-specification:Times-Roman" transform="translate(106.51 41.67) scale(13.33333)" font-weight="400" font-size=".5" font-family="Times New Roman"><tspan y="0" x="0 .39 .61 .83">meas</tspan></text><path d="M124.51 32h17.65V21.33H124.5z" fill="#fff" stroke="#000" stroke-width=".27" stroke-miterlimit="10"/><text style="-inkscape-font-specification:Times-Roman" transform="translate(126.51 28.33) scale(13.33333)" font-weight="400" font-size=".5" font-family="Times New Roman"><tspan y="0" x="0 .39 .61 .83">meas</tspan></text><path d="M124.51 18.67h17.65V8H124.5z" fill="#fff" stroke="#000" stroke-width=".27" stroke-miterlimit="10"/><text style="-inkscape-font-specification:Times-Roman" transform="translate(126.51 15) scale(13.33333)" font-weight="400" font-size=".5" font-family="Times New Roman"><tspan y="0" x="0 .39 .61 .83">meas</tspan></text><path d="M132.67 43.33H134v-6.66h-1.33z"/></svg>